<?xml version="1.0" encoding="UTF-8" standalone="no"?>
<!-- Created with Inkscape (http://www.inkscape.org/) -->

<svg
   width="52.374447mm"
   height="15.965311mm"
   viewBox="0 0 52.374447 15.965311"
   version="1.1"
   id="svg5"
   inkscape:version="1.1.1 (3bf5ae0d25, 2021-09-20)"
   sodipodi:docname="Logo TelkomSigma.svg"
   xmlns:inkscape="http://www.inkscape.org/namespaces/inkscape"
   xmlns:sodipodi="http://sodipodi.sourceforge.net/DTD/sodipodi-0.dtd"
   xmlns="http://www.w3.org/2000/svg"
   xmlns:svg="http://www.w3.org/2000/svg">
  <sodipodi:namedview
     id="namedview7"
     pagecolor="#ffffff"
     bordercolor="#666666"
     borderopacity="1.0"
     inkscape:pageshadow="2"
     inkscape:pageopacity="0.0"
     inkscape:pagecheckerboard="0"
     inkscape:document-units="mm"
     showgrid="false"
     fit-margin-top="0"
     fit-margin-left="0"
     fit-margin-right="0"
     fit-margin-bottom="0"
     inkscape:zoom="3.0574074"
     inkscape:cx="90.763174"
     inkscape:cy="46.281042"
     inkscape:window-width="1920"
     inkscape:window-height="1017"
     inkscape:window-x="-8"
     inkscape:window-y="-8"
     inkscape:window-maximized="1"
     inkscape:current-layer="layer1" />
  <defs
     id="defs2">
    <clipPath
       clipPathUnits="userSpaceOnUse"
       id="clipPath838">
      <path
         d="M 0,0 H 593.462 V 845.577 H 0 Z"
         id="path836" />
    </clipPath>
    <clipPath
       clipPathUnits="userSpaceOnUse"
       id="clipPath868">
      <path
         d="M 0,845.577 H 593.462 V 0 H 0 Z"
         id="path866" />
    </clipPath>
    <clipPath
       clipPathUnits="userSpaceOnUse"
       id="clipPath2800">
      <path
         d="M 0,845.577 H 593.462 V 0 H 0 Z"
         id="path2798" />
    </clipPath>
    <clipPath
       clipPathUnits="userSpaceOnUse"
       id="clipPath2832">
      <path
         d="M 434.663,63.736 H 543.794 V 172.868 H 434.663 Z"
         id="path2830" />
    </clipPath>
    <clipPath
       clipPathUnits="userSpaceOnUse"
       id="clipPath2846">
      <path
         d="M 0,845.577 H 593.462 V 0 H 0 Z"
         id="path2844" />
    </clipPath>
    <clipPath
       clipPathUnits="userSpaceOnUse"
       id="clipPath3002">
      <path
         d="M 459.34,845.205 H 343.892 V 715.211 H 228.444 112.997 V 598.896 482.58 H 228.444 V 366.265 H 343.892 V 249.948 H 459.34 V 366.265 H 592.243 V 482.58 598.896 715.211 845.205 Z"
         id="path3000" />
    </clipPath>
    <clipPath
       clipPathUnits="userSpaceOnUse"
       id="clipPath3036">
      <path
         d="M 459.34,845.205 H 343.892 V 715.211 H 228.444 112.997 V 598.896 482.58 H 228.444 V 366.265 H 343.892 V 249.948 H 459.34 V 366.265 H 592.243 V 482.58 598.896 715.211 845.205 Z"
         id="path3034" />
    </clipPath>
    <clipPath
       clipPathUnits="userSpaceOnUse"
       id="clipPath3044">
      <path
         d="m 370.045,578.138 h 70.814 V 249.024 h -70.814 z"
         id="path3042" />
    </clipPath>
    <clipPath
       clipPathUnits="userSpaceOnUse"
       id="clipPath3220">
      <path
         d="m 365.463,565.11 h 10.18 v -13.219 h -10.18 z"
         id="path3218" />
    </clipPath>
    <clipPath
       clipPathUnits="userSpaceOnUse"
       id="clipPath3264">
      <path
         d="m 414.577,568.344 h 9.232 v -12.771 h -9.232 z"
         id="path3262" />
    </clipPath>
    <clipPath
       clipPathUnits="userSpaceOnUse"
       id="clipPath3312">
      <path
         d="M 0,845.577 H 593.462 V 0 H 0 Z"
         id="path3310" />
    </clipPath>
    <clipPath
       clipPathUnits="userSpaceOnUse"
       id="clipPath2846-9">
      <path
         d="M 0,845.577 H 593.462 V 0 H 0 Z"
         id="path2844-7" />
    </clipPath>
  </defs>
  <g
     inkscape:label="Layer 1"
     inkscape:groupmode="layer"
     id="layer1"
     transform="translate(-1.5050842,-14.517341)">
    <g
       id="g2840"
       transform="matrix(0.35277777,0,0,-0.35277777,-17.150404,294.08561)">
      <g
         id="g2842"
         clip-path="url(#clipPath2846-9)">
        <g
           id="g2848"
           transform="translate(166.633,790.407)">
          <path
             d="m 0,0 c 0.364,0 0.66,-0.295 0.66,-0.66 0,-0.363 -0.296,-0.659 -0.66,-0.659 -0.364,0 -0.659,0.296 -0.659,0.659 C -0.659,-0.295 -0.364,0 0,0"
             style="fill:#231f20;fill-opacity:1;fill-rule:evenodd;stroke:none"
             id="path2850" />
        </g>
        <g
           id="g2852"
           transform="translate(54.3897,779.751)">
          <path
             d="m 0,0 h 0.356 v 1.863 c 0,0.499 0.013,0.89 0.041,1.173 0.028,0.286 0.105,0.53 0.231,0.732 0.13,0.212 0.312,0.383 0.547,0.518 0.24,0.132 0.503,0.198 0.799,0.198 0.409,0 0.782,-0.147 1.115,-0.442 C 3.312,3.845 3.45,3.605 3.511,3.322 3.571,3.036 3.6,2.633 3.6,2.11 V 0 H 4.788 C 5.246,0 5.599,-0.104 5.838,-0.313 6.081,-0.519 6.203,-0.786 6.203,-1.111 6.203,-1.526 6.028,-1.82 5.684,-1.986 5.339,-2.153 4.849,-2.234 4.204,-2.234 H 3.6 v -5.692 c 0,-0.484 0.016,-0.86 0.052,-1.119 0.037,-0.26 0.13,-0.473 0.285,-0.636 0.157,-0.162 0.409,-0.243 0.757,-0.243 0.187,0 0.447,0.03 0.771,0.096 0.324,0.066 0.579,0.097 0.758,0.097 0.263,0 0.499,-0.101 0.709,-0.302 0.211,-0.201 0.313,-0.445 0.313,-0.743 0,-0.5 -0.284,-0.879 -0.856,-1.143 -0.567,-0.267 -1.387,-0.399 -2.457,-0.399 -1.013,0 -1.784,0.163 -2.303,0.488 -0.523,0.326 -0.867,0.775 -1.029,1.352 -0.163,0.573 -0.244,1.339 -0.244,2.3 v 5.944 h -0.425 c -0.471,0 -0.827,0.104 -1.071,0.317 -0.247,0.213 -0.368,0.48 -0.368,0.806 0,0.325 0.13,0.592 0.384,0.798 C -0.864,-0.104 -0.491,0 0,0 m 17.481,-6.78 h -6.34 c 0.007,-0.705 0.158,-1.324 0.445,-1.863 0.289,-0.538 0.674,-0.94 1.152,-1.211 0.478,-0.276 1.01,-0.411 1.585,-0.411 0.389,0 0.742,0.042 1.062,0.132 0.321,0.085 0.633,0.22 0.933,0.406 0.304,0.186 0.579,0.383 0.831,0.597 0.255,0.212 0.584,0.499 0.989,0.863 0.166,0.135 0.402,0.205 0.71,0.205 0.332,0 0.604,-0.089 0.81,-0.263 0.203,-0.175 0.309,-0.418 0.309,-0.736 0,-0.279 -0.118,-0.608 -0.345,-0.983 -0.231,-0.372 -0.576,-0.732 -1.042,-1.077 -0.462,-0.344 -1.042,-0.631 -1.743,-0.856 -0.702,-0.228 -1.508,-0.341 -2.417,-0.341 -2.084,0 -3.705,0.566 -4.86,1.701 -1.156,1.134 -1.736,2.675 -1.736,4.619 0,0.914 0.142,1.766 0.43,2.548 0.284,0.782 0.702,1.452 1.245,2.013 0.547,0.558 1.22,0.988 2.022,1.286 0.799,0.298 1.688,0.449 2.66,0.449 1.269,0 2.356,-0.256 3.26,-0.766 0.908,-0.512 1.585,-1.17 2.039,-1.979 0.45,-0.809 0.677,-1.634 0.677,-2.474 0,-0.779 -0.235,-1.282 -0.701,-1.515 C 18.99,-6.664 18.329,-6.78 17.481,-6.78 m -6.34,1.758 h 5.878 c -0.077,1.057 -0.377,1.851 -0.895,2.373 -0.519,0.527 -1.201,0.791 -2.048,0.791 -0.811,0 -1.472,-0.268 -1.991,-0.798 -0.519,-0.535 -0.835,-1.324 -0.944,-2.366 m 11.744,-5.414 V 2.997 c 0,0.62 0.146,1.088 0.434,1.406 0.288,0.317 0.677,0.476 1.172,0.476 0.49,0 0.884,-0.159 1.188,-0.473 0.3,-0.313 0.45,-0.781 0.45,-1.409 v -13.433 c 0,-0.627 -0.154,-1.095 -0.458,-1.409 -0.304,-0.314 -0.697,-0.473 -1.18,-0.473 -0.478,0 -0.864,0.163 -1.159,0.488 -0.296,0.326 -0.447,0.791 -0.447,1.394 m 14.673,-0.464 -2.863,4.492 -1.759,-1.588 v -2.462 c 0,-0.597 -0.166,-1.058 -0.495,-1.379 -0.328,-0.322 -0.705,-0.481 -1.131,-0.481 -0.498,0 -0.892,0.159 -1.18,0.477 -0.283,0.318 -0.425,0.786 -0.425,1.405 V 2.769 c 0,0.689 0.137,1.211 0.417,1.572 0.276,0.36 0.673,0.538 1.188,0.538 0.499,0 0.892,-0.163 1.188,-0.488 0.292,-0.325 0.438,-0.806 0.438,-1.44 v -7.509 l 3.645,3.652 c 0.454,0.457 0.798,0.767 1.033,0.933 0.24,0.167 0.528,0.248 0.868,0.248 0.405,0 0.742,-0.124 1.009,-0.368 0.272,-0.248 0.406,-0.554 0.406,-0.926 0,-0.453 -0.442,-1.056 -1.318,-1.815 l -1.723,-1.507 3.325,-4.991 c 0.247,-0.372 0.421,-0.654 0.527,-0.848 0.109,-0.194 0.162,-0.375 0.162,-0.549 0,-0.492 -0.142,-0.88 -0.422,-1.163 -0.28,-0.282 -0.653,-0.426 -1.111,-0.426 -0.397,0 -0.701,0.101 -0.912,0.306 -0.215,0.205 -0.503,0.574 -0.867,1.112 m 17.071,4.879 c 0,-0.922 -0.149,-1.773 -0.45,-2.552 -0.303,-0.779 -0.738,-1.448 -1.309,-2.01 -0.568,-0.557 -1.249,-0.987 -2.039,-1.285 -0.795,-0.299 -1.683,-0.45 -2.672,-0.45 -0.985,0 -1.865,0.151 -2.651,0.454 -0.783,0.302 -1.46,0.736 -2.035,1.301 -0.576,0.562 -1.01,1.228 -1.306,1.994 -0.296,0.771 -0.446,1.619 -0.446,2.548 0,0.937 0.15,1.796 0.45,2.575 0.304,0.778 0.734,1.444 1.297,1.998 0.56,0.55 1.241,0.975 2.04,1.274 0.803,0.298 1.682,0.449 2.651,0.449 0.981,0 1.869,-0.151 2.672,-0.453 0.798,-0.302 1.483,-0.736 2.051,-1.294 0.572,-0.561 1.006,-1.227 1.302,-1.998 0.296,-0.77 0.445,-1.622 0.445,-2.551 m -3.255,0 c 0,1.262 -0.292,2.246 -0.872,2.951 -0.584,0.7 -1.362,1.052 -2.343,1.052 -0.637,0 -1.192,-0.158 -1.674,-0.472 -0.483,-0.314 -0.856,-0.774 -1.115,-1.386 -0.264,-0.616 -0.393,-1.328 -0.393,-2.145 0,-0.81 0.129,-1.514 0.385,-2.123 0.259,-0.604 0.624,-1.068 1.102,-1.389 0.483,-0.321 1.046,-0.48 1.695,-0.48 0.981,0 1.759,0.352 2.343,1.06 0.58,0.705 0.872,1.685 0.872,2.932 M 67.972,-6.25 v -4.116 c 0,-0.65 -0.155,-1.138 -0.462,-1.464 -0.313,-0.325 -0.718,-0.488 -1.224,-0.488 -0.495,0 -0.893,0.163 -1.197,0.488 -0.304,0.326 -0.458,0.814 -0.458,1.464 v 4.933 c 0,0.783 -0.028,1.387 -0.085,1.817 -0.053,0.429 -0.203,0.785 -0.45,1.06 -0.243,0.275 -0.633,0.415 -1.163,0.415 -1.063,0 -1.76,-0.349 -2.097,-1.046 C 60.5,-3.88 60.33,-4.879 60.33,-6.18 v -4.186 c 0,-0.643 -0.154,-1.131 -0.458,-1.459 -0.305,-0.33 -0.706,-0.493 -1.205,-0.493 -0.49,0 -0.892,0.163 -1.204,0.493 -0.312,0.328 -0.47,0.816 -0.47,1.459 v 8.86 c 0,0.581 0.142,1.026 0.422,1.328 0.279,0.302 0.652,0.453 1.11,0.453 0.442,0 0.811,-0.143 1.111,-0.426 0.296,-0.283 0.447,-0.674 0.447,-1.173 v -0.295 c 0.559,0.643 1.163,1.116 1.804,1.417 0.64,0.303 1.354,0.453 2.14,0.453 0.815,0 1.516,-0.154 2.104,-0.464 0.584,-0.309 1.066,-0.778 1.448,-1.406 0.547,0.636 1.13,1.104 1.759,1.41 0.624,0.306 1.318,0.46 2.076,0.46 0.888,0 1.65,-0.166 2.29,-0.499 0.641,-0.333 1.12,-0.809 1.436,-1.429 0.279,-0.557 0.417,-1.44 0.417,-2.644 v -6.045 c 0,-0.65 -0.154,-1.138 -0.462,-1.464 -0.308,-0.325 -0.718,-0.488 -1.224,-0.488 -0.491,0 -0.892,0.163 -1.204,0.493 -0.312,0.328 -0.471,0.816 -0.471,1.459 v 5.208 c 0,0.666 -0.028,1.197 -0.089,1.6 -0.061,0.398 -0.219,0.735 -0.479,1.01 -0.263,0.271 -0.656,0.407 -1.187,0.407 -0.43,0 -0.835,-0.121 -1.216,-0.364 C 68.839,-2.746 68.543,-3.07 68.329,-3.481 68.089,-4 67.972,-4.925 67.972,-6.25 m 21.175,-2.017 c 0,-0.856 -0.219,-1.587 -0.653,-2.195 -0.438,-0.609 -1.078,-1.069 -1.93,-1.383 -0.851,-0.314 -1.889,-0.473 -3.106,-0.473 -1.163,0 -2.165,0.171 -2.995,0.511 -0.832,0.342 -1.443,0.768 -1.841,1.279 -0.393,0.507 -0.592,1.022 -0.592,1.537 0,0.337 0.126,0.631 0.382,0.871 0.251,0.244 0.571,0.364 0.96,0.364 0.34,0 0.6,-0.081 0.783,-0.24 0.182,-0.159 0.356,-0.379 0.523,-0.666 0.332,-0.554 0.729,-0.964 1.192,-1.239 0.466,-0.271 1.098,-0.407 1.897,-0.407 0.649,0 1.184,0.14 1.597,0.414 0.418,0.276 0.624,0.593 0.624,0.945 0,0.547 -0.215,0.945 -0.648,1.193 -0.43,0.248 -1.143,0.488 -2.132,0.716 -1.116,0.264 -2.023,0.542 -2.725,0.833 -0.701,0.29 -1.261,0.673 -1.682,1.15 -0.418,0.476 -0.629,1.065 -0.629,1.758 0,0.619 0.194,1.208 0.584,1.758 0.385,0.554 0.956,0.995 1.715,1.324 0.754,0.329 1.67,0.492 2.737,0.492 0.838,0 1.593,-0.081 2.261,-0.248 0.669,-0.166 1.229,-0.391 1.675,-0.67 0.45,-0.282 0.791,-0.592 1.022,-0.933 0.234,-0.341 0.352,-0.674 0.352,-0.999 0,-0.352 -0.125,-0.647 -0.372,-0.871 -0.252,-0.229 -0.604,-0.341 -1.067,-0.341 -0.332,0 -0.612,0.089 -0.847,0.271 -0.235,0.182 -0.503,0.453 -0.803,0.817 -0.243,0.302 -0.535,0.546 -0.867,0.728 -0.333,0.182 -0.783,0.271 -1.354,0.271 -0.584,0 -1.075,-0.12 -1.46,-0.356 -0.39,-0.24 -0.584,-0.534 -0.584,-0.891 0,-0.325 0.142,-0.592 0.43,-0.801 0.283,-0.206 0.669,-0.379 1.151,-0.515 0.483,-0.136 1.148,-0.302 1.995,-0.5 1.005,-0.232 1.828,-0.515 2.465,-0.84 0.636,-0.321 1.119,-0.709 1.447,-1.15 0.328,-0.441 0.495,-0.945 0.495,-1.514 m 5.988,6.784 v -8.953 c 0,-0.619 -0.155,-1.087 -0.463,-1.405 -0.308,-0.318 -0.701,-0.477 -1.175,-0.477 -0.478,0 -0.864,0.163 -1.16,0.488 -0.295,0.326 -0.445,0.791 -0.445,1.394 v 8.86 c 0,0.616 0.15,1.076 0.445,1.387 0.296,0.309 0.682,0.464 1.16,0.464 0.474,0 0.867,-0.155 1.175,-0.464 0.308,-0.311 0.463,-0.744 0.463,-1.294 m -1.606,3.198 c -0.45,0 -0.835,0.132 -1.155,0.399 -0.32,0.263 -0.482,0.639 -0.482,1.119 0,0.442 0.166,0.802 0.494,1.084 0.328,0.283 0.71,0.427 1.143,0.427 0.422,0 0.795,-0.128 1.119,-0.388 0.325,-0.255 0.487,-0.631 0.487,-1.123 0,-0.476 -0.158,-0.848 -0.474,-1.115 C 94.344,1.851 93.967,1.715 93.529,1.715 m 16.878,-3.709 v -8.999 c 0,-1.026 -0.114,-1.913 -0.345,-2.653 -0.231,-0.743 -0.596,-1.354 -1.103,-1.838 -0.506,-0.485 -1.171,-0.845 -1.99,-1.077 -0.819,-0.236 -1.841,-0.353 -3.057,-0.353 -1.119,0 -2.116,0.151 -2.996,0.45 -0.875,0.298 -1.553,0.681 -2.031,1.157 -0.474,0.473 -0.71,0.957 -0.71,1.456 0,0.38 0.134,0.686 0.402,0.926 0.271,0.236 0.596,0.356 0.977,0.356 0.474,0 0.887,-0.202 1.244,-0.6 0.175,-0.206 0.357,-0.411 0.544,-0.62 0.182,-0.205 0.389,-0.383 0.616,-0.53 0.227,-0.147 0.495,-0.26 0.815,-0.329 0.316,-0.074 0.681,-0.109 1.09,-0.109 0.84,0 1.492,0.112 1.954,0.333 0.463,0.225 0.787,0.538 0.974,0.937 0.186,0.403 0.295,0.833 0.328,1.29 0.032,0.457 0.052,1.193 0.069,2.207 -0.499,-0.666 -1.075,-1.174 -1.728,-1.522 -0.652,-0.348 -1.43,-0.523 -2.335,-0.523 -1.082,0 -2.031,0.264 -2.841,0.794 -0.816,0.53 -1.436,1.27 -1.873,2.223 -0.434,0.953 -0.654,2.056 -0.654,3.303 0,0.929 0.135,1.769 0.398,2.517 0.268,0.751 0.645,1.382 1.135,1.897 0.491,0.511 1.059,0.902 1.699,1.162 0.64,0.259 1.346,0.39 2.112,0.39 0.92,0 1.715,-0.166 2.388,-0.502 0.673,-0.337 1.302,-0.868 1.877,-1.584 v 0.418 c 0,0.538 0.138,0.952 0.418,1.25 0.275,0.295 0.632,0.442 1.066,0.442 0.629,0 1.042,-0.193 1.249,-0.585 0.206,-0.391 0.308,-0.952 0.308,-1.684 m -9.394,-3.927 c 0,-1.254 0.288,-2.203 0.86,-2.846 0.576,-0.642 1.317,-0.964 2.23,-0.964 0.535,0 1.045,0.14 1.524,0.415 0.478,0.274 0.868,0.692 1.171,1.246 0.301,0.558 0.451,1.232 0.451,2.026 0,1.262 -0.292,2.246 -0.872,2.95 -0.584,0.701 -1.35,1.053 -2.299,1.053 -0.928,0 -1.67,-0.336 -2.225,-1.01 -0.56,-0.67 -0.84,-1.63 -0.84,-2.87 m 23.462,-0.329 v -4.116 c 0,-0.65 -0.154,-1.138 -0.462,-1.464 -0.312,-0.325 -0.718,-0.488 -1.225,-0.488 -0.495,0 -0.892,0.163 -1.196,0.488 -0.304,0.326 -0.458,0.814 -0.458,1.464 v 4.933 c 0,0.783 -0.028,1.387 -0.085,1.817 -0.053,0.429 -0.203,0.785 -0.45,1.06 -0.243,0.275 -0.632,0.415 -1.163,0.415 -1.063,0 -1.76,-0.349 -2.097,-1.046 -0.336,-0.693 -0.506,-1.692 -0.506,-2.993 v -4.186 c 0,-0.643 -0.154,-1.131 -0.458,-1.459 -0.305,-0.33 -0.706,-0.493 -1.204,-0.493 -0.491,0 -0.893,0.163 -1.205,0.493 -0.312,0.328 -0.47,0.816 -0.47,1.459 v 8.86 c 0,0.581 0.142,1.026 0.421,1.328 0.281,0.302 0.654,0.453 1.111,0.453 0.443,0 0.812,-0.143 1.112,-0.426 0.295,-0.283 0.445,-0.674 0.445,-1.173 v -0.295 c 0.56,0.643 1.164,1.116 1.805,1.417 0.64,0.303 1.354,0.453 2.14,0.453 0.815,0 1.516,-0.154 2.104,-0.464 0.584,-0.309 1.067,-0.778 1.448,-1.406 0.547,0.636 1.13,1.104 1.759,1.41 0.624,0.306 1.318,0.46 2.076,0.46 0.888,0 1.65,-0.166 2.29,-0.499 0.641,-0.333 1.119,-0.809 1.436,-1.429 0.279,-0.557 0.417,-1.44 0.417,-2.644 v -6.045 c 0,-0.65 -0.154,-1.138 -0.462,-1.464 -0.308,-0.325 -0.718,-0.488 -1.224,-0.488 -0.491,0 -0.893,0.163 -1.205,0.493 -0.312,0.328 -0.47,0.816 -0.47,1.459 v 5.208 c 0,0.666 -0.028,1.197 -0.089,1.6 -0.061,0.398 -0.219,0.735 -0.478,1.01 -0.264,0.271 -0.657,0.407 -1.188,0.407 -0.43,0 -0.835,-0.121 -1.216,-0.364 -0.386,-0.241 -0.682,-0.565 -0.896,-0.976 -0.24,-0.519 -0.357,-1.444 -0.357,-2.769 m 18.933,-4.321 c -0.787,-0.581 -1.545,-1.018 -2.275,-1.309 -0.733,-0.29 -1.556,-0.438 -2.465,-0.438 -0.835,0 -1.564,0.159 -2.192,0.473 -0.629,0.314 -1.116,0.736 -1.456,1.274 -0.341,0.538 -0.511,1.119 -0.511,1.746 0,0.848 0.28,1.569 0.843,2.169 0.564,0.596 1.334,0.999 2.319,1.2 0.203,0.046 0.714,0.147 1.533,0.306 0.815,0.163 1.512,0.306 2.095,0.438 0.58,0.135 1.213,0.294 1.894,0.483 -0.041,0.817 -0.211,1.418 -0.515,1.797 -0.308,0.384 -0.937,0.574 -1.897,0.574 -0.823,0 -1.444,-0.109 -1.857,-0.33 -0.418,-0.221 -0.775,-0.546 -1.07,-0.987 -0.296,-0.438 -0.507,-0.728 -0.629,-0.867 -0.125,-0.14 -0.389,-0.209 -0.79,-0.209 -0.366,0 -0.682,0.112 -0.945,0.336 -0.268,0.221 -0.397,0.507 -0.397,0.856 0,0.542 0.199,1.073 0.604,1.587 0.405,0.516 1.034,0.937 1.889,1.27 0.855,0.334 1.917,0.5 3.195,0.5 1.427,0 2.546,-0.162 3.361,-0.484 0.815,-0.321 1.39,-0.829 1.727,-1.525 0.336,-0.694 0.506,-1.619 0.506,-2.769 0,-0.724 -0.003,-1.344 -0.008,-1.847 -0.004,-0.507 -0.008,-1.073 -0.016,-1.692 0,-0.581 0.102,-1.189 0.304,-1.82 0.203,-0.632 0.3,-1.038 0.3,-1.22 0,-0.318 -0.154,-0.608 -0.466,-0.867 -0.312,-0.26 -0.669,-0.392 -1.062,-0.392 -0.333,0 -0.661,0.151 -0.986,0.45 -0.328,0.298 -0.669,0.728 -1.033,1.297 m -0.215,4.48 c -0.474,-0.166 -1.168,-0.341 -2.072,-0.527 -0.908,-0.185 -1.537,-0.321 -1.885,-0.41 -0.349,-0.085 -0.681,-0.256 -0.997,-0.511 -0.317,-0.252 -0.475,-0.605 -0.475,-1.057 0,-0.473 0.187,-0.871 0.56,-1.201 0.373,-0.328 0.86,-0.492 1.459,-0.492 0.641,0 1.233,0.136 1.776,0.403 0.543,0.268 0.941,0.616 1.196,1.038 0.292,0.469 0.438,1.239 0.438,2.316 z"
             style="fill:#ef2d32;fill-opacity:1;fill-rule:nonzero;stroke:none"
             id="path2854" />
        </g>
        <g
           id="g2856"
           transform="translate(156.234,790.407)">
          <path
             d="m 0,0 c 0.364,0 0.66,-0.295 0.66,-0.66 0,-0.363 -0.296,-0.659 -0.66,-0.659 -0.364,0 -0.659,0.296 -0.659,0.659 C -0.659,-0.295 -0.364,0 0,0"
             style="fill:#231f20;fill-opacity:1;fill-rule:evenodd;stroke:none"
             id="path2858" />
        </g>
        <g
           id="g2860"
           transform="translate(158.978,792.037)">
          <path
             d="m 0,0 c 0,0.245 0.195,0.44 0.448,0.44 0.245,0 0.44,-0.195 0.44,-0.44 v -4.243 c 0,-0.246 -0.195,-0.441 -0.44,-0.441 C 0.195,-4.684 0,-4.489 0,-4.243 Z"
             style="fill:#ef2d32;fill-opacity:1;fill-rule:nonzero;stroke:none"
             id="path2862" />
        </g>
        <g
           id="g2864"
           transform="translate(162.455,791.618)">
          <path
             d="m 0,0 h -1.227 c -0.231,0 -0.411,0.187 -0.411,0.411 0,0.224 0.18,0.411 0.411,0.411 H 2.129 C 2.353,0.822 2.533,0.635 2.533,0.411 2.533,0.187 2.353,0 2.129,0 H 0.895 V -3.824 C 0.895,-4.07 0.693,-4.265 0.447,-4.265 0.202,-4.265 0,-4.07 0,-3.824 Z"
             style="fill:#ef2d32;fill-opacity:1;fill-rule:nonzero;stroke:none"
             id="path2866" />
        </g>
        <g
           id="g2868"
           transform="translate(63.3307,755.368)">
          <path
             d="M 0,0 C 0,0.2 -0.173,0.368 -0.379,0.368 H -3.817 C -4.021,0.368 -4.195,0.2 -4.195,0 c 0,-0.198 0.169,-0.361 0.378,-0.361 h 1.318 v -3.951 c 0,-0.216 0.181,-0.392 0.401,-0.392 0.222,0 0.401,0.176 0.401,0.392 v 3.951 h 1.318 C -0.169,-0.361 0,-0.198 0,0"
             style="fill:#231f20;fill-opacity:1;fill-rule:nonzero;stroke:none"
             id="path2870" />
        </g>
        <g
           id="g2872"
           transform="translate(64.464,753.88)">
          <path
             d="M 0,0 C 0.649,0 0.954,-0.485 1.034,-0.979 H -1.054 C -0.945,-0.397 -0.527,0 0,0 m 0.015,0.675 c -1.051,0 -1.873,-0.862 -1.873,-1.962 v -0.015 c 0,-1.118 0.836,-1.961 1.942,-1.961 0.589,0 1.04,0.176 1.461,0.568 0.077,0.067 0.122,0.156 0.122,0.256 0,0.187 -0.16,0.339 -0.358,0.339 -0.082,0 -0.158,-0.028 -0.232,-0.089 -0.294,-0.263 -0.604,-0.384 -0.978,-0.384 -0.603,0 -1.043,0.378 -1.153,0.972 h 2.51 c 0.207,0 0.374,0.164 0.374,0.363 0,0.951 -0.624,1.913 -1.815,1.913"
             style="fill:#231f20;fill-opacity:1;fill-rule:nonzero;stroke:none"
             id="path2874" />
        </g>
        <g
           id="g2876"
           transform="translate(67.1734,755.976)">
          <path
             d="m 0,0 c -0.214,0 -0.387,-0.169 -0.387,-0.381 v -4.547 c 0,-0.214 0.173,-0.383 0.394,-0.383 0.22,0 0.387,0.166 0.387,0.383 v 4.547 C 0.394,-0.169 0.216,0 0,0"
             style="fill:#231f20;fill-opacity:1;fill-rule:nonzero;stroke:none"
             id="path2878" />
        </g>
        <g
           id="g2880"
           transform="translate(70.2735,752.798)">
          <path
             d="m 0,0 1.118,1.067 c 0.076,0.072 0.143,0.156 0.143,0.287 0,0.203 -0.161,0.362 -0.366,0.362 -0.115,0 -0.21,-0.045 -0.3,-0.14 L -1.18,-0.179 v 2.975 c 0,0.212 -0.176,0.382 -0.393,0.382 -0.212,0 -0.387,-0.17 -0.387,-0.382 V -1.75 c 0,-0.214 0.173,-0.383 0.395,-0.383 0.219,0 0.385,0.166 0.385,0.383 v 0.634 l 0.628,0.602 1.185,-1.45 c 0.093,-0.119 0.19,-0.169 0.326,-0.169 0.216,0 0.379,0.157 0.379,0.363 0,0.093 -0.027,0.164 -0.095,0.249 z"
             style="fill:#231f20;fill-opacity:1;fill-rule:nonzero;stroke:none"
             id="path2882" />
        </g>
        <g
           id="g2884"
           transform="translate(72.4669,752.599)">
          <path
             d="m 0,0 c 0,0.718 0.525,1.261 1.22,1.261 0.695,0 1.241,-0.56 1.241,-1.273 V -0.026 C 2.461,-0.74 1.932,-1.278 1.234,-1.278 0.544,-1.278 0,-0.723 0,-0.012 Z m 1.234,1.956 c -1.137,0 -2.027,-0.865 -2.027,-1.968 v -0.014 c 0,-1.097 0.884,-1.955 2.013,-1.955 1.14,0 2.034,0.863 2.034,1.969 V 0 c 0,1.098 -0.887,1.956 -2.02,1.956"
             style="fill:#231f20;fill-opacity:1;fill-rule:nonzero;stroke:none"
             id="path2886" />
        </g>
        <g
           id="g2888"
           transform="translate(80.4908,754.555)">
          <path
             d="M 0,0 C -0.529,0 -0.949,-0.199 -1.275,-0.608 -1.536,-0.214 -1.95,0 -2.46,0 -2.969,0 -3.296,-0.208 -3.524,-0.451 v 0.028 c 0,0.215 -0.174,0.382 -0.394,0.382 -0.214,0 -0.388,-0.17 -0.388,-0.382 v -3.084 c 0,-0.215 0.174,-0.384 0.395,-0.384 0.221,0 0.387,0.167 0.387,0.384 v 1.792 c 0,0.582 0.378,1.006 0.899,1.006 0.524,0 0.825,-0.344 0.825,-0.944 v -1.854 c 0,-0.215 0.169,-0.384 0.386,-0.384 0.22,0 0.394,0.169 0.394,0.384 v 1.813 c 0,0.588 0.356,0.985 0.885,0.985 0.535,0 0.831,-0.34 0.831,-0.958 v -1.84 c 0,-0.215 0.174,-0.384 0.393,-0.384 0.217,0 0.388,0.169 0.388,0.384 v 1.965 C 1.477,-0.591 0.912,0 0,0"
             style="fill:#231f20;fill-opacity:1;fill-rule:nonzero;stroke:none"
             id="path2890" />
        </g>
        <g
           id="g2892"
           transform="translate(84.7604,755.435)">
          <path
             d="m 0,0 c -0.194,0 -0.357,-0.162 -0.357,-0.354 v -4.318 c 0,-0.189 0.163,-0.353 0.357,-0.353 0.201,0 0.364,0.159 0.364,0.353 v 4.318 C 0.364,-0.158 0.201,0 0,0"
             style="fill:#231f20;fill-opacity:1;fill-rule:nonzero;stroke:none"
             id="path2894" />
        </g>
        <g
           id="g2896"
           transform="translate(87.9088,754.224)">
          <path
             d="m 0,0 c -0.483,0 -0.875,-0.177 -1.167,-0.522 v 0.133 c 0,0.195 -0.156,0.346 -0.357,0.346 -0.193,0 -0.351,-0.155 -0.351,-0.346 v -3.079 c 0,-0.194 0.158,-0.346 0.358,-0.346 0.198,0 0.35,0.149 0.35,0.346 v 1.797 c 0,0.607 0.417,1.032 1.012,1.032 0.59,0 0.927,-0.361 0.927,-0.991 v -1.838 c 0,-0.194 0.159,-0.346 0.358,-0.346 0.197,0 0.349,0.152 0.349,0.346 V -1.5 C 1.479,-0.59 0.898,0 0,0"
             style="fill:#231f20;fill-opacity:1;fill-rule:nonzero;stroke:none"
             id="path2898" />
        </g>
        <g
           id="g2900"
           transform="translate(93.0524,752.306)">
          <path
             d="m 0,0 v -0.015 c 0,-0.796 -0.643,-1.29 -1.239,-1.29 -0.685,0 -1.204,0.555 -1.204,1.29 V 0 c 0,0.757 0.497,1.285 1.204,1.285 C -0.629,1.285 0,0.805 0,0 m 0.328,3.337 c -0.199,0 -0.349,-0.15 -0.349,-0.346 V 1.317 c -0.352,0.398 -0.793,0.601 -1.317,0.601 -0.885,0 -1.825,-0.675 -1.825,-1.925 v -0.014 c 0,-1.243 0.94,-1.916 1.825,-1.916 0.526,0 0.959,0.207 1.317,0.63 V -1.55 c 0,-0.194 0.157,-0.346 0.356,-0.346 0.197,0 0.351,0.152 0.351,0.346 v 4.541 c 0,0.193 -0.156,0.346 -0.358,0.346"
             style="fill:#231f20;fill-opacity:1;fill-rule:nonzero;stroke:none"
             id="path2902" />
        </g>
        <g
           id="g2904"
           transform="translate(95.0021,752.306)">
          <path
             d="m 0,0 c 0,0.736 0.539,1.292 1.254,1.292 0.713,0 1.271,-0.572 1.271,-1.307 v -0.013 c 0,-0.731 -0.54,-1.284 -1.257,-1.284 C 0.557,-1.312 0,-0.741 0,-0.015 Z m 1.268,1.918 c -1.116,0 -1.988,-0.849 -1.988,-1.933 v -0.013 c 0,-1.073 0.866,-1.915 1.974,-1.915 1.116,0 1.994,0.847 1.994,1.928 V 0 c 0,1.075 -0.871,1.918 -1.98,1.918"
             style="fill:#231f20;fill-opacity:1;fill-rule:nonzero;stroke:none"
             id="path2906" />
        </g>
        <g
           id="g2908"
           transform="translate(100.66,754.224)">
          <path
             d="m 0,0 c -0.483,0 -0.874,-0.177 -1.167,-0.522 v 0.133 c 0,0.195 -0.157,0.346 -0.358,0.346 -0.193,0 -0.35,-0.155 -0.35,-0.346 v -3.079 c 0,-0.194 0.157,-0.346 0.358,-0.346 0.2,0 0.35,0.149 0.35,0.346 v 1.797 c 0,0.607 0.416,1.032 1.014,1.032 0.589,0 0.926,-0.361 0.926,-0.991 v -1.838 c 0,-0.194 0.157,-0.346 0.357,-0.346 0.197,0 0.35,0.152 0.35,0.346 V -1.5 C 1.48,-0.59 0.898,0 0,0"
             style="fill:#231f20;fill-opacity:1;fill-rule:nonzero;stroke:none"
             id="path2910" />
        </g>
        <g
           id="g2912"
           transform="translate(103.351,752.569)">
          <path
             d="M 0,0 C 0.099,0.624 0.538,1.048 1.094,1.048 1.782,1.048 2.095,0.523 2.168,0 Z m 1.107,1.654 c -1.026,0 -1.831,-0.847 -1.831,-1.925 v -0.013 c 0,-1.096 0.817,-1.923 1.903,-1.923 0.578,0 1.019,0.171 1.433,0.556 0.07,0.061 0.11,0.143 0.11,0.23 0,0.168 -0.143,0.304 -0.323,0.304 -0.071,0 -0.139,-0.024 -0.207,-0.078 -0.299,-0.27 -0.618,-0.394 -1,-0.394 -0.623,0 -1.093,0.414 -1.192,1.041 h 2.549 c 0.183,0 0.335,0.147 0.335,0.325 0,0.932 -0.609,1.877 -1.777,1.877"
             style="fill:#231f20;fill-opacity:1;fill-rule:nonzero;stroke:none"
             id="path2914" />
        </g>
        <g
           id="g2916"
           transform="translate(108.19,752.623)">
          <path
             d="M 0,0 -0.013,0.004 C -0.46,0.136 -0.88,0.26 -0.88,0.533 v 0.015 c 0,0.258 0.25,0.433 0.623,0.433 0.285,0 0.6,-0.091 0.912,-0.263 0.032,-0.015 0.09,-0.037 0.161,-0.037 0.179,0 0.322,0.136 0.322,0.304 0,0.117 -0.064,0.223 -0.174,0.288 -0.381,0.201 -0.818,0.312 -1.206,0.312 -0.781,0 -1.326,-0.45 -1.326,-1.094 V 0.477 c 0,-0.727 0.735,-0.929 1.267,-1.076 C 0.183,-0.73 0.55,-0.854 0.55,-1.146 v -0.013 c 0,-0.29 -0.27,-0.484 -0.673,-0.484 -0.371,0 -0.747,0.122 -1.112,0.363 -0.043,0.036 -0.109,0.056 -0.18,0.056 -0.177,0 -0.321,-0.136 -0.321,-0.306 0,-0.12 0.068,-0.212 0.134,-0.257 0.414,-0.288 0.955,-0.459 1.45,-0.459 0.826,0 1.381,0.458 1.381,1.142 v 0.012 C 1.229,-0.359 0.49,-0.143 0,0"
             style="fill:#231f20;fill-opacity:1;fill-rule:nonzero;stroke:none"
             id="path2918" />
        </g>
        <g
           id="g2920"
           transform="translate(110.383,754.181)">
          <path
             d="m 0,0 c -0.192,0 -0.35,-0.155 -0.35,-0.346 v -3.079 c 0,-0.194 0.158,-0.346 0.357,-0.346 0.2,0 0.351,0.149 0.351,0.346 v 3.079 C 0.358,-0.151 0.2,0 0,0"
             style="fill:#231f20;fill-opacity:1;fill-rule:nonzero;stroke:none"
             id="path2922" />
        </g>
        <g
           id="g2924"
           transform="translate(113.973,752.108)">
          <path
             d="m 0,0 v -0.282 c 0,-0.502 -0.49,-0.881 -1.14,-0.881 -0.402,0 -0.836,0.198 -0.836,0.628 v 0.013 c 0,0.41 0.368,0.654 0.984,0.654 C -0.659,0.132 -0.333,0.089 0,0 m 0.28,1.672 c -0.282,0.274 -0.699,0.414 -1.237,0.414 -0.442,0 -0.818,-0.074 -1.225,-0.246 -0.093,-0.036 -0.196,-0.144 -0.196,-0.292 0,-0.165 0.145,-0.305 0.32,-0.305 0.04,0 0.087,0.01 0.129,0.025 0.3,0.131 0.599,0.194 0.916,0.194 0.459,0 1.003,-0.155 1.003,-0.887 V 0.554 c -0.268,0.071 -0.585,0.127 -1.038,0.127 -1.013,0 -1.642,-0.468 -1.642,-1.223 v -0.015 c 0,-0.776 0.726,-1.182 1.445,-1.182 0.594,0 0.987,0.234 1.235,0.478 v -0.11 c 0,-0.188 0.15,-0.328 0.345,-0.328 0.196,0 0.343,0.148 0.343,0.342 v 1.938 c 0,0.469 -0.133,0.836 -0.398,1.091"
             style="fill:#231f20;fill-opacity:1;fill-rule:nonzero;stroke:none"
             id="path2926" />
        </g>
        <g
           id="g2928"
           transform="translate(120.685,756.146)">
          <path
             d="m 0,0 c -0.478,0 -0.932,-0.089 -1.347,-0.252 0.558,-1.731 1.683,-3.35 3.257,-4.465 0.311,-0.221 0.65,-0.417 1.007,-0.591 0.397,0.547 0.63,1.211 0.63,1.927 C 3.547,-1.514 1.959,0 0,0"
             style="fill:#ef2d32;fill-opacity:1;fill-rule:nonzero;stroke:none"
             id="path2930" />
        </g>
        <g
           id="g2932"
           transform="translate(128.82,754.306)">
          <path
             d="M 0,0 C 1.303,0.997 4.59,3.154 4.081,4.029 3.669,4.734 1.872,3.881 -0.157,2.778 -1.751,1.909 -1.408,2.958 -0.394,4.492 0.499,5.841 1.841,7.661 1.093,8.155 0.222,8.727 -2.448,5.553 -3.073,4.927 -3.696,4.3 -4.268,3.963 -3.954,5.708 -3.535,8.026 -3.452,9.239 -3.974,9.385 -4.703,9.59 -5.159,8.68 -6.25,6.131 -7.034,4.303 -7.716,3.979 -7.801,5.62 -7.91,8.567 -8.659,7.892 -8.947,7.438 -9.737,6.192 -10.007,4.684 -9.829,3.17 c 0.622,0.237 1.303,0.367 2.014,0.367 3.044,0 5.512,-2.378 5.512,-5.309 0,-0.881 -0.223,-1.709 -0.617,-2.439 1.738,-0.318 3.568,-0.165 4.949,0.522 0.229,0.113 0.787,0.455 0.439,0.928 -0.693,0.943 -1.943,0.448 -3.28,0.835 C -1.985,-1.586 -0.939,-0.72 0,0"
             style="fill:#ef2d32;fill-opacity:1;fill-rule:nonzero;stroke:none"
             id="path2934" />
        </g>
        <g
           id="g2936"
           transform="translate(123.602,750.839)">
          <path
             d="m 0,0 c -0.643,-0.879 -1.709,-1.457 -2.917,-1.457 -1.96,0 -3.549,1.516 -3.549,3.384 0,1.413 0.911,2.624 2.202,3.128 -0.167,0.522 -0.284,1.051 -0.346,1.583 -2.05,-0.775 -3.501,-2.695 -3.501,-4.943 0,-2.933 2.468,-5.313 5.514,-5.313 2.13,0 3.978,1.169 4.895,2.874 C 1.494,-0.596 0.709,-0.346 0,0"
             style="fill:#575c61;fill-opacity:1;fill-rule:nonzero;stroke:none"
             id="path2938" />
        </g>
        <g
           id="g2940"
           transform="translate(130.459,788.537)">
          <path
             d="m 0,0 v 1.83 h -0.131 c -0.191,0 -0.343,0.151 -0.343,0.342 0,0.191 0.152,0.342 0.343,0.342 H 0 v 0.593 c 0,0.217 0.178,0.394 0.402,0.394 0.217,0 0.394,-0.177 0.394,-0.394 V 2.514 h 0.626 c 0.19,0 0.349,-0.151 0.349,-0.342 C 1.771,1.981 1.612,1.83 1.422,1.83 H 0.796 V 0.125 c 0,-0.309 0.159,-0.434 0.428,-0.434 0.092,0 0.172,0.019 0.198,0.019 0.178,0 0.335,-0.144 0.335,-0.329 0,-0.144 -0.098,-0.263 -0.21,-0.309 C 1.375,-0.987 1.211,-1.02 1,-1.02 0.415,-1.02 0,-0.763 0,0"
             style="fill:#231f20;fill-opacity:1;fill-rule:nonzero;stroke:none"
             id="path2942" />
        </g>
        <g
           id="g2944"
           transform="translate(133,790.689)">
          <path
             d="M 0,0 C 0,0.224 0.171,0.401 0.395,0.401 0.619,0.401 0.796,0.224 0.796,0 v -0.355 c 0.184,0.434 0.527,0.763 0.876,0.763 0.25,0 0.394,-0.164 0.394,-0.395 0,-0.21 -0.138,-0.348 -0.316,-0.382 C 1.185,-0.467 0.796,-0.901 0.796,-1.724 V -2.751 C 0.796,-2.968 0.619,-3.146 0.395,-3.146 0.178,-3.146 0,-2.975 0,-2.751 Z"
             style="fill:#231f20;fill-opacity:1;fill-rule:nonzero;stroke:none"
             id="path2946" />
        </g>
        <g
           id="g2948"
           transform="translate(138.804,787.938)">
          <path
             d="m 0,0 c 0,-0.217 -0.178,-0.395 -0.401,-0.395 -0.218,0 -0.402,0.171 -0.402,0.395 v 0.178 c -0.223,-0.329 -0.546,-0.613 -1.086,-0.613 -0.783,0 -1.237,0.527 -1.237,1.337 v 1.849 c 0,0.224 0.178,0.401 0.395,0.401 0.224,0 0.401,-0.177 0.401,-0.401 V 1.139 c 0,-0.54 0.27,-0.843 0.744,-0.843 0.461,0 0.783,0.316 0.783,0.856 v 1.599 c 0,0.224 0.178,0.401 0.402,0.401 C -0.184,3.152 0,2.975 0,2.751 Z"
             style="fill:#231f20;fill-opacity:1;fill-rule:nonzero;stroke:none"
             id="path2950" />
        </g>
        <g
           id="g2952"
           transform="translate(139.667,787.925)">
          <path
             d="m 0,0 c -0.085,0.046 -0.151,0.145 -0.151,0.276 0,0.178 0.138,0.323 0.322,0.323 0.066,0 0.125,-0.02 0.171,-0.046 0.336,-0.224 0.685,-0.336 1.001,-0.336 0.342,0 0.539,0.145 0.539,0.375 v 0.013 c 0,0.27 -0.368,0.363 -0.777,0.487 C 0.592,1.237 0.02,1.448 0.02,2.113 v 0.013 c 0,0.658 0.546,1.06 1.237,1.06 C 1.625,3.186 2.014,3.08 2.35,2.902 2.461,2.843 2.541,2.738 2.541,2.6 2.541,2.416 2.396,2.277 2.211,2.277 2.146,2.277 2.106,2.291 2.053,2.317 1.771,2.461 1.481,2.554 1.237,2.554 0.928,2.554 0.75,2.409 0.75,2.211 V 2.198 C 0.75,1.941 1.125,1.836 1.534,1.705 2.04,1.547 2.613,1.316 2.613,0.691 V 0.678 c 0,-0.731 -0.566,-1.093 -1.29,-1.093 C 0.882,-0.415 0.401,-0.276 0,0"
             style="fill:#231f20;fill-opacity:1;fill-rule:nonzero;stroke:none"
             id="path2954" />
        </g>
        <g
           id="g2956"
           transform="translate(143.194,788.537)">
          <path
             d="m 0,0 v 1.83 h -0.132 c -0.191,0 -0.342,0.151 -0.342,0.342 0,0.191 0.151,0.342 0.342,0.342 H 0 v 0.593 c 0,0.217 0.178,0.394 0.401,0.394 0.218,0 0.395,-0.177 0.395,-0.394 V 2.514 H 1.421 C 1.612,2.514 1.77,2.363 1.77,2.172 1.77,1.981 1.612,1.83 1.421,1.83 H 0.796 V 0.125 c 0,-0.309 0.158,-0.434 0.428,-0.434 0.092,0 0.171,0.019 0.197,0.019 0.178,0 0.336,-0.144 0.336,-0.329 0,-0.144 -0.099,-0.263 -0.211,-0.309 C 1.375,-0.987 1.211,-1.02 1,-1.02 0.415,-1.02 0,-0.763 0,0"
             style="fill:#231f20;fill-opacity:1;fill-rule:nonzero;stroke:none"
             id="path2958" />
        </g>
        <g
           id="g2960"
           transform="translate(148.019,789.558)">
          <path
             d="M 0,0 C -0.053,0.513 -0.355,0.915 -0.882,0.915 -1.369,0.915 -1.711,0.54 -1.784,0 Z m -0.79,-2.06 c -1.007,0 -1.784,0.73 -1.784,1.803 v 0.013 c 0,0.994 0.705,1.81 1.699,1.81 1.105,0 1.651,-0.908 1.651,-1.711 0,-0.224 -0.171,-0.382 -0.375,-0.382 h -2.178 c 0.086,-0.566 0.487,-0.882 1,-0.882 0.336,0 0.599,0.119 0.823,0.303 0.059,0.046 0.112,0.073 0.204,0.073 0.178,0 0.316,-0.139 0.316,-0.323 C 0.566,-1.455 0.52,-1.54 0.46,-1.599 0.145,-1.882 -0.25,-2.06 -0.79,-2.06"
             style="fill:#231f20;fill-opacity:1;fill-rule:nonzero;stroke:none"
             id="path2962" />
        </g>
        <g
           id="g2964"
           transform="translate(150.236,789.321)">
          <path
             d="m 0,0 v -0.013 c 0,-0.672 0.46,-1.112 1,-1.112 0.533,0 1.007,0.447 1.007,1.112 L 2.007,0 C 2.007,0.671 1.533,1.112 1,1.112 0.454,1.112 0,0.691 0,0 m 2.791,-1.382 c 0,-0.224 -0.178,-0.395 -0.395,-0.395 -0.224,0 -0.402,0.171 -0.402,0.395 v 0.217 C 1.737,-1.527 1.375,-1.817 0.81,-1.817 c -0.817,0 -1.613,0.652 -1.613,1.804 V 0 c 0,1.151 0.783,1.803 1.613,1.803 0.572,0 0.934,-0.283 1.184,-0.612 v 1.507 c 0,0.224 0.178,0.395 0.395,0.395 0.224,0 0.402,-0.171 0.402,-0.395 z"
             style="fill:#231f20;fill-opacity:1;fill-rule:nonzero;stroke:none"
             id="path2966" />
        </g>
        <g
           id="g2968"
           transform="translate(169.594,789.294)">
          <path
             d="M 0,0 V 0.013 C 0,1 0.763,1.83 1.81,1.83 2.356,1.83 2.731,1.652 3.027,1.395 3.08,1.349 3.153,1.25 3.153,1.119 3.153,0.915 2.988,0.757 2.784,0.757 2.686,0.757 2.6,0.796 2.547,0.835 2.343,1.007 2.119,1.132 1.803,1.132 1.224,1.132 0.796,0.632 0.796,0.026 V 0.013 c 0,-0.618 0.428,-1.112 1.04,-1.112 0.316,0 0.56,0.125 0.777,0.309 0.046,0.04 0.125,0.085 0.217,0.085 0.191,0 0.342,-0.157 0.342,-0.348 0,-0.106 -0.039,-0.191 -0.111,-0.25 C 2.751,-1.6 2.376,-1.797 1.797,-1.797 0.763,-1.797 0,-0.987 0,0"
             style="fill:#231f20;fill-opacity:1;fill-rule:nonzero;stroke:none"
             id="path2970" />
        </g>
        <g
           id="g2972"
           transform="translate(176.162,789.294)">
          <path
             d="m 0,0 v 0.013 c 0,0.612 -0.441,1.119 -1.066,1.119 -0.639,0 -1.047,-0.5 -1.047,-1.106 V 0.013 c 0,-0.606 0.441,-1.112 1.06,-1.112 C -0.408,-1.099 0,-0.599 0,0 m -2.909,0 v 0.013 c 0,0.994 0.79,1.817 1.856,1.817 1.066,0 1.849,-0.81 1.849,-1.804 V 0.013 c 0,-0.987 -0.79,-1.81 -1.862,-1.81 -1.06,0 -1.843,0.81 -1.843,1.797"
             style="fill:#231f20;fill-opacity:1;fill-rule:nonzero;stroke:none"
             id="path2974" />
        </g>
        <g
           id="g2976"
           transform="translate(177.768,790.689)">
          <path
             d="M 0,0 C 0,0.224 0.171,0.401 0.395,0.401 0.619,0.401 0.796,0.224 0.796,0 v -0.165 c 0.224,0.31 0.527,0.6 1.06,0.6 0.5,0 0.855,-0.244 1.04,-0.613 0.276,0.369 0.645,0.613 1.171,0.613 0.757,0 1.218,-0.481 1.218,-1.33 v -1.856 c 0,-0.224 -0.171,-0.395 -0.395,-0.395 -0.224,0 -0.402,0.171 -0.402,0.395 v 1.612 c 0,0.554 -0.256,0.849 -0.704,0.849 -0.434,0 -0.743,-0.302 -0.743,-0.862 v -1.599 c 0,-0.224 -0.178,-0.395 -0.395,-0.395 -0.224,0 -0.402,0.171 -0.402,0.395 v 1.619 c 0,0.54 -0.263,0.842 -0.704,0.842 -0.441,0 -0.744,-0.329 -0.744,-0.862 V -2.751 C 0.796,-2.975 0.619,-3.146 0.395,-3.146 0.178,-3.146 0,-2.975 0,-2.751 Z"
             style="fill:#231f20;fill-opacity:1;fill-rule:nonzero;stroke:none"
             id="path2978" />
        </g>
        <g
           id="g2980"
           transform="translate(186.804,789.308)">
          <path
             d="m 0,0 v 0.013 c 0,0.671 -0.454,1.112 -0.994,1.112 -0.54,0 -1.013,-0.447 -1.013,-1.112 V 0 c 0,-0.665 0.473,-1.112 1.013,-1.112 C -0.447,-1.112 0,-0.685 0,0 m -2.784,1.382 c 0,0.223 0.171,0.401 0.395,0.401 0.224,0 0.402,-0.178 0.402,-0.401 V 1.165 c 0.256,0.362 0.618,0.651 1.184,0.651 0.816,0 1.613,-0.645 1.613,-1.803 L 0.81,0 c 0,-1.152 -0.79,-1.804 -1.613,-1.804 -0.579,0 -0.941,0.29 -1.184,0.613 v -1.231 c 0,-0.224 -0.178,-0.395 -0.402,-0.395 -0.217,0 -0.395,0.171 -0.395,0.395 z"
             style="fill:#231f20;fill-opacity:1;fill-rule:nonzero;stroke:none"
             id="path2982" />
        </g>
        <g
           id="g2984"
           transform="translate(190.589,788.827)">
          <path
             d="m 0,0 v 0.237 c -0.204,0.079 -0.474,0.138 -0.79,0.138 -0.513,0 -0.815,-0.217 -0.815,-0.579 v -0.013 c 0,-0.336 0.295,-0.527 0.677,-0.527 C -0.401,-0.744 0,-0.441 0,0 m -2.382,-0.25 v 0.013 c 0,0.75 0.586,1.119 1.434,1.119 0.389,0 0.665,-0.06 0.935,-0.145 v 0.085 c 0,0.494 -0.303,0.758 -0.862,0.758 -0.303,0 -0.553,-0.053 -0.77,-0.139 -0.046,-0.013 -0.085,-0.02 -0.125,-0.02 -0.185,0 -0.336,0.145 -0.336,0.329 0,0.146 0.099,0.271 0.217,0.316 0.329,0.125 0.665,0.205 1.119,0.205 0.52,0 0.908,-0.139 1.152,-0.389 0.257,-0.25 0.375,-0.618 0.375,-1.073 v -1.711 c 0,-0.217 -0.171,-0.382 -0.388,-0.382 -0.231,0 -0.389,0.159 -0.389,0.336 v 0.132 c -0.236,-0.283 -0.598,-0.507 -1.131,-0.507 -0.652,0 -1.231,0.375 -1.231,1.073"
             style="fill:#231f20;fill-opacity:1;fill-rule:nonzero;stroke:none"
             id="path2986" />
        </g>
        <g
           id="g2988"
           transform="translate(192.3,790.689)">
          <path
             d="M 0,0 C 0,0.224 0.171,0.401 0.395,0.401 0.619,0.401 0.796,0.224 0.796,0 v -0.171 c 0.224,0.322 0.547,0.606 1.086,0.606 0.784,0 1.238,-0.527 1.238,-1.33 v -1.856 c 0,-0.224 -0.172,-0.395 -0.395,-0.395 -0.224,0 -0.402,0.171 -0.402,0.395 v 1.612 c 0,0.54 -0.27,0.849 -0.743,0.849 -0.461,0 -0.784,-0.322 -0.784,-0.862 V -2.751 C 0.796,-2.975 0.619,-3.146 0.395,-3.146 0.178,-3.146 0,-2.975 0,-2.751 Z"
             style="fill:#231f20;fill-opacity:1;fill-rule:nonzero;stroke:none"
             id="path2990" />
        </g>
        <g
           id="g2992"
           transform="translate(196.407,786.603)">
          <path
             d="m 0,0 c -0.119,0.04 -0.25,0.138 -0.25,0.329 0,0.197 0.151,0.329 0.322,0.329 0.066,0 0.105,-0.013 0.145,-0.026 0.092,-0.027 0.164,-0.047 0.276,-0.047 0.237,0 0.362,0.099 0.494,0.369 l 0.026,0.073 -1.289,2.882 c -0.027,0.06 -0.047,0.138 -0.047,0.191 0,0.224 0.172,0.388 0.395,0.388 0.204,0 0.316,-0.118 0.388,-0.302 L 1.395,1.875 2.264,4.186 c 0.066,0.164 0.177,0.302 0.382,0.302 0.21,0 0.381,-0.164 0.381,-0.375 0,-0.066 -0.02,-0.151 -0.032,-0.191 L 1.724,0.875 C 1.428,0.165 1.112,-0.099 0.553,-0.099 0.329,-0.099 0.165,-0.066 0,0"
             style="fill:#231f20;fill-opacity:1;fill-rule:nonzero;stroke:none"
             id="path2994" />
        </g>
      </g>
    </g>
  </g>
</svg>
